<mxfile host="app.diagrams.net" modified="2021-10-12T13:06:21.681Z" agent="5.0 (Windows NT 10.0; Win64; x64) AppleWebKit/537.36 (KHTML, like Gecko) Chrome/94.0.4606.71 Safari/537.36 Edg/94.0.992.38" etag="LlZlpuLJkNuHPsZoq5t1" version="15.5.0" type="github" pages="2">
  <diagram id="C5RBs43oDa-KdzZeNtuy" name="Page-1">
    <mxGraphModel dx="1038" dy="547" grid="1" gridSize="10" guides="1" tooltips="1" connect="1" arrows="1" fold="1" page="1" pageScale="1" pageWidth="1169" pageHeight="827" background="#F1FAEE" math="0" shadow="0">
      <root>
        <mxCell id="WIyWlLk6GJQsqaUBKTNV-0" />
        <mxCell id="WIyWlLk6GJQsqaUBKTNV-1" parent="WIyWlLk6GJQsqaUBKTNV-0" />
        <mxCell id="ASgRhX_1fX_P1sjDmLCB-1" value="&lt;p style=&quot;margin: 0px ; margin-top: 4px ; text-align: center&quot;&gt;&lt;i&gt;&amp;lt;&amp;lt;Interface&amp;gt;&amp;gt;&lt;/i&gt;&lt;br&gt;&lt;b&gt;Arrgreate&lt;/b&gt;&lt;/p&gt;&lt;hr size=&quot;1&quot;&gt;&lt;p style=&quot;margin: 0px ; margin-left: 4px&quot;&gt;&lt;br&gt;&lt;/p&gt;&lt;hr size=&quot;1&quot;&gt;&lt;p style=&quot;margin: 0px ; margin-left: 4px&quot;&gt;iterator&lt;/p&gt;" style="verticalAlign=top;align=left;overflow=fill;fontSize=12;fontFamily=Helvetica;html=1;fillColor=#A8DADC;strokeColor=#457B9D;fontColor=#1D3557;sketch=1;" vertex="1" parent="WIyWlLk6GJQsqaUBKTNV-1">
          <mxGeometry x="340" y="160" width="180" height="100" as="geometry" />
        </mxCell>
        <mxCell id="ASgRhX_1fX_P1sjDmLCB-2" value="&lt;p style=&quot;margin: 0px ; margin-top: 4px ; text-align: center&quot;&gt;&lt;i&gt;&amp;lt;&amp;lt;Interface&amp;gt;&amp;gt;&lt;/i&gt;&lt;br&gt;&lt;b&gt;Iterator&lt;/b&gt;&lt;/p&gt;&lt;hr size=&quot;1&quot;&gt;&lt;p style=&quot;margin: 0px ; margin-left: 4px&quot;&gt;&lt;br&gt;&lt;/p&gt;&lt;hr size=&quot;1&quot;&gt;&lt;p style=&quot;margin: 0px ; margin-left: 4px&quot;&gt;hasNext&lt;/p&gt;&lt;p style=&quot;margin: 0px ; margin-left: 4px&quot;&gt;next&lt;/p&gt;&lt;p style=&quot;margin: 0px ; margin-left: 4px&quot;&gt;&lt;br&gt;&lt;/p&gt;" style="verticalAlign=top;align=left;overflow=fill;fontSize=12;fontFamily=Helvetica;html=1;fillColor=#A8DADC;strokeColor=#457B9D;fontColor=#1D3557;sketch=1;" vertex="1" parent="WIyWlLk6GJQsqaUBKTNV-1">
          <mxGeometry x="720" y="155" width="170" height="110" as="geometry" />
        </mxCell>
        <mxCell id="ASgRhX_1fX_P1sjDmLCB-3" value="&lt;p style=&quot;margin: 0px ; margin-top: 4px ; text-align: center&quot;&gt;&lt;b&gt;BookShelf&lt;/b&gt;&lt;/p&gt;&lt;hr size=&quot;1&quot;&gt;&lt;p style=&quot;margin: 0px ; margin-left: 4px&quot;&gt;books&lt;/p&gt;&lt;p style=&quot;margin: 0px ; margin-left: 4px&quot;&gt;last&lt;/p&gt;&lt;hr size=&quot;1&quot;&gt;&lt;p style=&quot;margin: 0px ; margin-left: 4px&quot;&gt;getBookAt&lt;/p&gt;&lt;p style=&quot;margin: 0px ; margin-left: 4px&quot;&gt;appendBook&lt;/p&gt;&lt;p style=&quot;margin: 0px ; margin-left: 4px&quot;&gt;getLength&lt;/p&gt;&lt;p style=&quot;margin: 0px ; margin-left: 4px&quot;&gt;iterator&lt;/p&gt;" style="verticalAlign=top;align=left;overflow=fill;fontSize=12;fontFamily=Helvetica;html=1;fillColor=#A8DADC;strokeColor=#457B9D;fontColor=#1D3557;sketch=1;" vertex="1" parent="WIyWlLk6GJQsqaUBKTNV-1">
          <mxGeometry x="350" y="370" width="160" height="130" as="geometry" />
        </mxCell>
        <mxCell id="ASgRhX_1fX_P1sjDmLCB-4" value="&lt;p style=&quot;margin: 0px ; margin-top: 4px ; text-align: center&quot;&gt;&lt;b&gt;Book&lt;/b&gt;&lt;/p&gt;&lt;hr size=&quot;1&quot;&gt;&lt;p style=&quot;margin: 0px ; margin-left: 4px&quot;&gt;name&lt;/p&gt;&lt;hr size=&quot;1&quot;&gt;&lt;p style=&quot;margin: 0px ; margin-left: 4px&quot;&gt;getName&lt;/p&gt;" style="verticalAlign=top;align=left;overflow=fill;fontSize=12;fontFamily=Helvetica;html=1;fillColor=#A8DADC;strokeColor=#457B9D;fontColor=#1D3557;sketch=1;" vertex="1" parent="WIyWlLk6GJQsqaUBKTNV-1">
          <mxGeometry x="350" y="600" width="160" height="90" as="geometry" />
        </mxCell>
        <mxCell id="ASgRhX_1fX_P1sjDmLCB-8" value="1" style="endArrow=open;html=1;endSize=12;startArrow=diamondThin;startSize=14;startFill=0;edgeStyle=orthogonalEdgeStyle;align=left;verticalAlign=bottom;entryX=0.5;entryY=0;entryDx=0;entryDy=0;exitX=0.5;exitY=1;exitDx=0;exitDy=0;strokeColor=#457B9D;fontColor=#1D3557;labelBackgroundColor=#F1FAEE;sketch=1;curved=1;" edge="1" parent="WIyWlLk6GJQsqaUBKTNV-1" source="ASgRhX_1fX_P1sjDmLCB-3" target="ASgRhX_1fX_P1sjDmLCB-4">
          <mxGeometry x="-1" y="3" relative="1" as="geometry">
            <mxPoint x="550" y="510" as="sourcePoint" />
            <mxPoint x="710" y="510" as="targetPoint" />
          </mxGeometry>
        </mxCell>
        <mxCell id="ASgRhX_1fX_P1sjDmLCB-10" value="&lt;p style=&quot;margin: 0px ; margin-top: 4px ; text-align: center&quot;&gt;&lt;b&gt;BookShelfIterator&lt;/b&gt;&lt;/p&gt;&lt;hr size=&quot;1&quot;&gt;&lt;p style=&quot;margin: 0px ; margin-left: 4px&quot;&gt;bookShelf&lt;/p&gt;&lt;p style=&quot;margin: 0px ; margin-left: 4px&quot;&gt;index&lt;/p&gt;&lt;hr size=&quot;1&quot;&gt;&lt;p style=&quot;margin: 0px ; margin-left: 4px&quot;&gt;hasNext&lt;/p&gt;&lt;p style=&quot;margin: 0px ; margin-left: 4px&quot;&gt;next&lt;/p&gt;" style="verticalAlign=top;align=left;overflow=fill;fontSize=12;fontFamily=Helvetica;html=1;fillColor=#A8DADC;strokeColor=#457B9D;fontColor=#1D3557;sketch=1;" vertex="1" parent="WIyWlLk6GJQsqaUBKTNV-1">
          <mxGeometry x="720" y="380" width="160" height="110" as="geometry" />
        </mxCell>
        <mxCell id="ASgRhX_1fX_P1sjDmLCB-11" value="" style="endArrow=block;dashed=1;endFill=0;endSize=12;html=1;exitX=0.5;exitY=0;exitDx=0;exitDy=0;strokeColor=#457B9D;fontColor=#1D3557;labelBackgroundColor=#F1FAEE;sketch=1;curved=1;" edge="1" parent="WIyWlLk6GJQsqaUBKTNV-1" source="ASgRhX_1fX_P1sjDmLCB-3" target="ASgRhX_1fX_P1sjDmLCB-1">
          <mxGeometry width="160" relative="1" as="geometry">
            <mxPoint x="410" y="360" as="sourcePoint" />
            <mxPoint x="570" y="360" as="targetPoint" />
          </mxGeometry>
        </mxCell>
        <mxCell id="ASgRhX_1fX_P1sjDmLCB-12" value="1" style="endArrow=open;html=1;endSize=12;startArrow=diamondThin;startSize=14;startFill=0;edgeStyle=orthogonalEdgeStyle;align=left;verticalAlign=bottom;entryX=1;entryY=0.5;entryDx=0;entryDy=0;exitX=0;exitY=0.5;exitDx=0;exitDy=0;strokeColor=#457B9D;fontColor=#1D3557;labelBackgroundColor=#F1FAEE;sketch=1;curved=1;" edge="1" parent="WIyWlLk6GJQsqaUBKTNV-1" source="ASgRhX_1fX_P1sjDmLCB-10" target="ASgRhX_1fX_P1sjDmLCB-3">
          <mxGeometry x="-1" y="3" relative="1" as="geometry">
            <mxPoint x="560" y="550" as="sourcePoint" />
            <mxPoint x="720" y="550" as="targetPoint" />
          </mxGeometry>
        </mxCell>
        <mxCell id="ASgRhX_1fX_P1sjDmLCB-13" value="" style="endArrow=block;dashed=1;endFill=0;endSize=12;html=1;entryX=0.5;entryY=1;entryDx=0;entryDy=0;exitX=0.553;exitY=-0.024;exitDx=0;exitDy=0;exitPerimeter=0;strokeColor=#457B9D;fontColor=#1D3557;labelBackgroundColor=#F1FAEE;sketch=1;curved=1;" edge="1" parent="WIyWlLk6GJQsqaUBKTNV-1" source="ASgRhX_1fX_P1sjDmLCB-10" target="ASgRhX_1fX_P1sjDmLCB-2">
          <mxGeometry width="160" relative="1" as="geometry">
            <mxPoint x="800" y="590" as="sourcePoint" />
            <mxPoint x="960" y="590" as="targetPoint" />
          </mxGeometry>
        </mxCell>
        <mxCell id="ASgRhX_1fX_P1sjDmLCB-14" value="" style="endArrow=open;endFill=1;endSize=12;html=1;entryX=0;entryY=0.5;entryDx=0;entryDy=0;strokeColor=#457B9D;fontColor=#1D3557;labelBackgroundColor=#F1FAEE;sketch=1;curved=1;" edge="1" parent="WIyWlLk6GJQsqaUBKTNV-1" source="ASgRhX_1fX_P1sjDmLCB-1" target="ASgRhX_1fX_P1sjDmLCB-2">
          <mxGeometry width="160" relative="1" as="geometry">
            <mxPoint x="530" y="200" as="sourcePoint" />
            <mxPoint x="690" y="200" as="targetPoint" />
          </mxGeometry>
        </mxCell>
      </root>
    </mxGraphModel>
  </diagram>
  <diagram id="p9x4NQwnIZ0b6v40NMNX" name="第 2 页">
    <mxGraphModel dx="1038" dy="547" grid="1" gridSize="10" guides="1" tooltips="1" connect="1" arrows="1" fold="1" page="1" pageScale="1" pageWidth="1169" pageHeight="827" math="0" shadow="0">
      <root>
        <mxCell id="plWXUlWeM8wxtltbpkqv-0" />
        <mxCell id="plWXUlWeM8wxtltbpkqv-1" parent="plWXUlWeM8wxtltbpkqv-0" />
        <mxCell id="uWaZPo0VqIMRR5_sUTNV-1" value="ObjectA" style="shape=umlLifeline;perimeter=lifelinePerimeter;whiteSpace=wrap;html=1;container=1;collapsible=0;recursiveResize=0;outlineConnect=0;fillColor=#21C0A5;gradientDirection=south;sketch=1;strokeColor=#006658;fontColor=#5C5C5C;" parent="plWXUlWeM8wxtltbpkqv-1" vertex="1">
          <mxGeometry x="240" y="80" width="100" height="340" as="geometry" />
        </mxCell>
        <mxCell id="uWaZPo0VqIMRR5_sUTNV-2" value="ObjectB" style="shape=umlLifeline;perimeter=lifelinePerimeter;whiteSpace=wrap;html=1;container=1;collapsible=0;recursiveResize=0;outlineConnect=0;fillColor=#21C0A5;gradientDirection=south;sketch=1;strokeColor=#006658;fontColor=#5C5C5C;" parent="plWXUlWeM8wxtltbpkqv-1" vertex="1">
          <mxGeometry x="440" y="80" width="100" height="330" as="geometry" />
        </mxCell>
        <mxCell id="uWaZPo0VqIMRR5_sUTNV-24" value="" style="html=1;points=[];perimeter=orthogonalPerimeter;sketch=1;fillColor=#21C0A5;strokeColor=#006658;fontColor=#5C5C5C;" parent="uWaZPo0VqIMRR5_sUTNV-2" vertex="1">
          <mxGeometry x="45" y="150" width="10" height="60" as="geometry" />
        </mxCell>
        <mxCell id="uWaZPo0VqIMRR5_sUTNV-25" value="dispatch" style="html=1;verticalAlign=bottom;endArrow=block;rounded=0;sketch=1;strokeColor=#006658;fontColor=#5C5C5C;" parent="uWaZPo0VqIMRR5_sUTNV-2" target="uWaZPo0VqIMRR5_sUTNV-3" edge="1">
          <mxGeometry width="80" relative="1" as="geometry">
            <mxPoint x="60" y="190" as="sourcePoint" />
            <mxPoint x="140" y="190" as="targetPoint" />
          </mxGeometry>
        </mxCell>
        <mxCell id="uWaZPo0VqIMRR5_sUTNV-3" value="ObjectC" style="shape=umlLifeline;perimeter=lifelinePerimeter;whiteSpace=wrap;html=1;container=1;collapsible=0;recursiveResize=0;outlineConnect=0;fillColor=#21C0A5;gradientDirection=south;sketch=1;strokeColor=#006658;fontColor=#5C5C5C;" parent="plWXUlWeM8wxtltbpkqv-1" vertex="1">
          <mxGeometry x="620" y="80" width="100" height="340" as="geometry" />
        </mxCell>
        <mxCell id="uWaZPo0VqIMRR5_sUTNV-22" value="dispatch" style="html=1;verticalAlign=bottom;startArrow=oval;endArrow=block;startSize=8;rounded=0;sketch=1;strokeColor=#006658;fontColor=#5C5C5C;" parent="plWXUlWeM8wxtltbpkqv-1" target="uWaZPo0VqIMRR5_sUTNV-2" edge="1">
          <mxGeometry relative="1" as="geometry">
            <mxPoint x="290" y="240" as="sourcePoint" />
            <mxPoint x="420" y="240" as="targetPoint" />
          </mxGeometry>
        </mxCell>
        <mxCell id="uWaZPo0VqIMRR5_sUTNV-26" value="return" style="html=1;verticalAlign=bottom;endArrow=open;dashed=1;endSize=8;rounded=0;sketch=1;strokeColor=#006658;fontColor=#5C5C5C;" parent="plWXUlWeM8wxtltbpkqv-1" target="uWaZPo0VqIMRR5_sUTNV-1" edge="1">
          <mxGeometry relative="1" as="geometry">
            <mxPoint x="480" y="280" as="sourcePoint" />
            <mxPoint x="400" y="280" as="targetPoint" />
          </mxGeometry>
        </mxCell>
        <mxCell id="rw-Ugh72V7h52GSJYXXI-6" style="edgeStyle=orthogonalEdgeStyle;curved=0;rounded=1;sketch=0;orthogonalLoop=1;jettySize=auto;html=1;entryX=0.5;entryY=0;entryDx=0;entryDy=0;fontColor=#5C5C5C;strokeColor=#006658;fillColor=#21C0A5;" parent="plWXUlWeM8wxtltbpkqv-1" source="rw-Ugh72V7h52GSJYXXI-0" target="rw-Ugh72V7h52GSJYXXI-1" edge="1">
          <mxGeometry relative="1" as="geometry" />
        </mxCell>
        <mxCell id="rw-Ugh72V7h52GSJYXXI-0" value="State" style="html=1;align=center;verticalAlign=top;rounded=1;absoluteArcSize=1;arcSize=10;dashed=0;sketch=1;fillColor=#21C0A5;strokeColor=#006658;fontColor=#5C5C5C;" parent="plWXUlWeM8wxtltbpkqv-1" vertex="1">
          <mxGeometry x="175" y="470" width="140" height="40" as="geometry" />
        </mxCell>
        <mxCell id="rw-Ugh72V7h52GSJYXXI-7" style="edgeStyle=orthogonalEdgeStyle;curved=0;rounded=1;sketch=0;orthogonalLoop=1;jettySize=auto;html=1;fontColor=#5C5C5C;strokeColor=#006658;fillColor=#21C0A5;" parent="plWXUlWeM8wxtltbpkqv-1" source="rw-Ugh72V7h52GSJYXXI-1" target="rw-Ugh72V7h52GSJYXXI-2" edge="1">
          <mxGeometry relative="1" as="geometry" />
        </mxCell>
        <mxCell id="rw-Ugh72V7h52GSJYXXI-1" value="State" style="html=1;align=center;verticalAlign=top;rounded=1;absoluteArcSize=1;arcSize=10;dashed=0;sketch=1;fillColor=#21C0A5;strokeColor=#006658;fontColor=#5C5C5C;" parent="plWXUlWeM8wxtltbpkqv-1" vertex="1">
          <mxGeometry x="175" y="570" width="140" height="40" as="geometry" />
        </mxCell>
        <mxCell id="rw-Ugh72V7h52GSJYXXI-8" style="edgeStyle=orthogonalEdgeStyle;curved=0;rounded=1;sketch=0;orthogonalLoop=1;jettySize=auto;html=1;entryX=0;entryY=0.5;entryDx=0;entryDy=0;fontColor=#5C5C5C;strokeColor=#006658;fillColor=#21C0A5;" parent="plWXUlWeM8wxtltbpkqv-1" source="rw-Ugh72V7h52GSJYXXI-2" target="rw-Ugh72V7h52GSJYXXI-3" edge="1">
          <mxGeometry relative="1" as="geometry" />
        </mxCell>
        <mxCell id="rw-Ugh72V7h52GSJYXXI-2" value="State" style="html=1;align=center;verticalAlign=top;rounded=1;absoluteArcSize=1;arcSize=10;dashed=0;sketch=1;fillColor=#21C0A5;strokeColor=#006658;fontColor=#5C5C5C;" parent="plWXUlWeM8wxtltbpkqv-1" vertex="1">
          <mxGeometry x="175" y="670" width="140" height="40" as="geometry" />
        </mxCell>
        <mxCell id="rw-Ugh72V7h52GSJYXXI-12" style="edgeStyle=orthogonalEdgeStyle;curved=0;rounded=1;sketch=0;orthogonalLoop=1;jettySize=auto;html=1;entryX=0;entryY=0.5;entryDx=0;entryDy=0;fontColor=#5C5C5C;strokeColor=#006658;fillColor=#21C0A5;" parent="plWXUlWeM8wxtltbpkqv-1" source="rw-Ugh72V7h52GSJYXXI-3" target="rw-Ugh72V7h52GSJYXXI-11" edge="1">
          <mxGeometry relative="1" as="geometry" />
        </mxCell>
        <mxCell id="rw-Ugh72V7h52GSJYXXI-3" value="State" style="html=1;align=center;verticalAlign=top;rounded=1;absoluteArcSize=1;arcSize=10;dashed=0;sketch=1;fillColor=#21C0A5;strokeColor=#006658;fontColor=#5C5C5C;" parent="plWXUlWeM8wxtltbpkqv-1" vertex="1">
          <mxGeometry x="460" y="670" width="140" height="40" as="geometry" />
        </mxCell>
        <mxCell id="rw-Ugh72V7h52GSJYXXI-4" value="" style="ellipse;html=1;shape=startState;fillColor=#000000;strokeColor=#ff0000;rounded=0;sketch=0;fontColor=#5C5C5C;" parent="plWXUlWeM8wxtltbpkqv-1" vertex="1">
          <mxGeometry x="230" y="380" width="30" height="30" as="geometry" />
        </mxCell>
        <mxCell id="rw-Ugh72V7h52GSJYXXI-5" value="" style="edgeStyle=orthogonalEdgeStyle;html=1;verticalAlign=bottom;endArrow=open;endSize=8;strokeColor=#ff0000;rounded=1;sketch=0;fontColor=#5C5C5C;fillColor=#21C0A5;curved=0;" parent="plWXUlWeM8wxtltbpkqv-1" source="rw-Ugh72V7h52GSJYXXI-4" edge="1">
          <mxGeometry relative="1" as="geometry">
            <mxPoint x="245" y="470" as="targetPoint" />
          </mxGeometry>
        </mxCell>
        <mxCell id="rw-Ugh72V7h52GSJYXXI-11" value="" style="ellipse;html=1;shape=endState;fillColor=#000000;strokeColor=#ff0000;rounded=0;sketch=0;fontColor=#5C5C5C;" parent="plWXUlWeM8wxtltbpkqv-1" vertex="1">
          <mxGeometry x="720" y="675" width="30" height="30" as="geometry" />
        </mxCell>
      </root>
    </mxGraphModel>
  </diagram>
</mxfile>
